{"title":"Gran.Torino.2008.1080p.BluRay.DTS.x264-LTT","uid":5694255,"size":7549062501,"categoryP":"video","categoryS":"hd___movies","magnet":"?xt=urn:btih:293fc771a8b60edc5d4b2c165c72d9e61840b687&amp;dn=Gran.Torino.2008.1080p.BluRay.DTS.x264-LTT&amp;tr=udp%3A%2F%2Ftracker.openbittorrent.com%3A80&amp;tr=udp%3A%2F%2Fopen.demonii.com%3A1337&amp;tr=udp%3A%2F%2Ftracker.coppersurfer.tk%3A6969&amp;tr=udp%3A%2F%2Fexodus.desync.com%3A6969","seeders":0,"leechers":1,"uploader":"MrGeil","files":2,"time":1279227620,"description":"Gran.Torino.2008.1080p.mkv\n**************************\n\nTiTLE......  Gran Torino\nYEAR.......  2008\nGENRE......  Drama\niMDB RATE..  User Rating: 8.4/10 (113,797 votes)\niMDB URL... &lt;a href=&quot; http://www.imdb.com/title/tt1205489/&quot; rel=&quot;nofollow&quot; target=&quot;_NEW&quot;&gt; http://www.imdb.com/title/tt1205489/&lt;/a&gt;\nAwards 2009: Nominated for Golden Globe. Another 13 wins &amp; 7 nominations\n************************************************************************\n\nVideo\nDuration                         : 1h 56mn\nOverall bit rate                 : 8 627 Kbps\nWidth                            : 1 920 pixels\nHeight                           : 816 pixels\nDisplay aspect ratio             : 2.35:1\nFrame rate                       : 23.976 fps\nStream size                      : 5.65 GiB (80%)\n\nAudio\nFormat                           : DTS\nFormat/Info                      : Digital Theater Systems\nBit rate                         : 1 510 Kbps\nChannel(s)                       : 6 channels\nChannel positions                : Front: L C R, Surround: L R, LFE\nSampling rate                    : 48.0 KHz\nResolution                       : 24 bits\nStream size                      : 1.23 GiB (18%)\nLanguage                         : English\n\nSubtitles: English(Non-Eng Parts), English, Dutch, French, Portuguese\n*********************************************************************\n\n\n","torrent":{"xt":"urn:btih:293fc771a8b60edc5d4b2c165c72d9e61840b687","amp;dn":"Gran.Torino.2008.1080p.BluRay.DTS.x264-LTT","amp;tr":["udp%3A%2F%2Ftracker.openbittorrent.com%3A80","udp%3A%2F%2Fopen.demonii.com%3A1337","udp%3A%2F%2Ftracker.coppersurfer.tk%3A6969","udp%3A%2F%2Fexodus.desync.com%3A6969"],"infoHash":"293fc771a8b60edc5d4b2c165c72d9e61840b687","infoHashBuffer":{"type":"Buffer","data":[41,63,199,113,168,182,14,220,93,75,44,22,92,114,217,230,24,64,182,135]},"announce":[],"urlList":[]}}